<?xml version="1.0" encoding="utf-8"?>
<!-- Generator: Adobe Illustrator 18.0.0, SVG Export Plug-In . SVG Version: 6.00 Build 0)  -->
<!DOCTYPE svg PUBLIC "-//W3C//DTD SVG 1.1//EN" "http://www.w3.org/Graphics/SVG/1.1/DTD/svg11.dtd">
<svg version="1.1" id="Layer_1" xmlns="http://www.w3.org/2000/svg" xmlns:xlink="http://www.w3.org/1999/xlink" x="0px" y="0px"
	 viewBox="0 0 1400 980" enable-background="new 0 0 1400 980" xml:space="preserve">
<g>
	<rect fill="#FFFFFF" width="1400" height="980"/>
	<g>
		<path fill="#F79328" d="M976.4,651.7l-3.4-11.1h-4.3c2.6-1.8,4.3-4.9,4.3-8.3c0-5.6-4.6-10.2-10.2-10.2c-5.6,0-10.2,4.6-10.2,10.2
			c0,3.4,1.7,6.5,4.3,8.3h-3.2c0.2-0.5,0.3-1,0.3-1.5c0-2.3-1.9-4.2-4.2-4.2s-4.2,1.9-4.2,4.2c0,0.5,0.1,1.1,0.3,1.5h-2.2
			c-0.6-0.9-1.1-1.8-1.6-2.6c-5-8.2-6.8-12.7-7.4-15.1l-0.3-1l-0.7-0.7c-2.5-2.6-8.5-6.2-14.1-9.2c1.5-3.9,2.2-8.3,2.2-12.7
			c0-1.4-0.1-2.8-0.2-4.2c0.8,0.5,1.7,0.9,2.7,0.9c2.6,0,4.6-2.1,4.6-4.6c0-2.6-2.1-4.6-4.6-4.6c-1.6,0-3.1,0.9-3.9,2.2
			c-1.2-4-3-7.5-5.3-10.4c0.3-1.9,0.5-3.8,0.5-5.7c0-7.7-2.6-14.8-6.9-20.5c0.9,0.3,1.8,0.5,2.8,0.5c4.8,0,8.7-3.9,8.7-8.7
			c0-4.8-3.9-8.7-8.7-8.7c-4.8,0-8.7,3.9-8.7,8.7c0,0.9,0.1,1.7,0.4,2.5c-5.8-4.8-13.3-7.6-21.4-7.6h-15.6c0.1-0.9,0.2-1.9,0.2-2.8
			v-16.2c0-1.1-0.1-2.2-0.3-3.2c1.1,1,2.5,1.6,4,1.6c3.2,0,5.9-2.6,5.9-5.9c0-3.2-2.6-5.9-5.9-5.9c-2.8,0-5.2,2-5.7,4.6
			c-2.9-6.2-8.8-10.6-15.8-11.6c0.1-0.3,0.1-0.7,0.1-1.1c0-2.6-2.1-4.7-4.7-4.7s-4.7,2.1-4.7,4.7c0,0.7,0.1,1.3,0.4,1.8
			c-8.3,2.6-14.3,10.4-14.3,19.6v16.2c0,1,0.1,1.9,0.2,2.8h-15.6c-0.3,0-0.5,0-0.8,0c0.6-1.1,0.9-2.3,0.9-3.6c0-4.1-3.3-7.4-7.4-7.4
			c-4.1,0-7.4,3.3-7.4,7.4c0,2.3,1.1,4.4,2.7,5.7c-12.8,4.8-21.9,17.2-21.9,31.7c0,1.9,0.2,3.9,0.5,5.7c-2.8,3.5-4.9,8-6,13
			c-1.4-2.1-3.9-3.5-6.6-3.5c-4.4,0-8,3.6-8,8s3.6,8,8,8c2.3,0,4.4-1,5.9-2.6c0.2,3.7,0.9,7.3,2.2,10.6c-5.5,3-11.5,6.6-14.1,9.2
			l-0.7,0.7l-0.3,1c-0.7,2.4-2.5,6.9-7.4,15.1c-0.5,0.9-1.1,1.7-1.6,2.6h-18.7c1.4-1.5,2.3-3.5,2.3-5.7c0-4.6-3.7-8.4-8.4-8.4
			s-8.4,3.7-8.4,8.4c0,2.8,1.4,5.3,3.5,6.8l-3,10h-8.6l1.5,4.9c1.8,6.2,6.2,11.5,12,14.4l2.8,1.4l1.9,0.9h5.6h6.1
			c-0.5,0.7-0.8,1.6-0.8,2.5c0,2.5,2.1,4.6,4.6,4.6c2.5,0,4.6-2.1,4.6-4.6c0-0.9-0.3-1.8-0.8-2.5h9.3l1.1-1.1
			c0.1-0.1,7-6.7,15.3-12.4c-0.1,0.3-0.2,0.7-0.2,1c0,1.8,1.5,3.3,3.3,3.3c1.8,0,3.3-1.5,3.3-3.3c0-1.7-1.3-3.1-3-3.3
			c4.9-3,9.1-4.8,12.2-5.2l1.3-0.2l0.9-0.9c3.2-3.1,8.3-11.1,12-17.3c1.5-2.4,2.7-5,3.8-7.6l1-2.4c3.3,4.8,6.8,8.9,10.6,11.9
			c-1.3,5.6-1.8,12.9-1.2,18.7c-0.2,0-0.5-0.1-0.7-0.1c-2.5,0-4.6,2.1-4.6,4.6s2.1,4.6,4.6,4.6c0.1,0,0.2,0,0.3,0
			c-1.1,2.8-2.2,5.7-3.1,8.6l-0.1,0.3l0,0.3c-0.5,3.4-1.2,8.3-1.6,14c-0.8-0.7-1.9-1.2-3-1.2c-2.5,0-4.5,2-4.5,4.5
			c0,2.5,2,4.5,4.5,4.5c1,0,1.9-0.3,2.6-0.8c-0.4,7.9-0.3,16.8,0.8,25.8c-0.8-0.4-1.6-0.6-2.5-0.6c-3,0-5.4,2.4-5.4,5.4
			c0,3,2.4,5.4,5.4,5.4c1.5,0,2.9-0.6,3.8-1.6c0.9,4.6,2.2,9.2,3.8,13.5c-2.9,14-4,29.7-3.3,46.7c0.1,2.8,0.3,5.5,0.4,8.1
			c-0.7-0.5-1.6-0.7-2.5-0.7c-2.5,0-4.6,2-4.6,4.6c0,2.5,2,4.6,4.6,4.6c1.2,0,2.2-0.4,3-1.2c2.2,26.3,7.3,48.9,15.2,67.3
			c-0.9-1.3-2.4-2.2-4.2-2.2c-2.8,0-5,2.2-5,5s2.2,5,5,5s5-2.2,5-5c0-0.4-0.1-0.8-0.2-1.2c0.2,0.4,0.3,0.8,0.5,1.2l-0.6,3.6
			c-2,11.6,0.5,23.6,6.7,32.2l3.1,4.3l4-5.5c1.8-2.5,3.3-5.3,4.5-8.4c1.2,3,2.7,5.9,4.5,8.4l4,5.5l3.1-4.3
			c6.2-8.5,8.7-20.6,6.7-32.1l-0.6-3.6c0.9-2,1.8-4,2.6-6.1c0.5,2,2.3,3.4,4.4,3.4c2.6,0,4.6-2.1,4.6-4.6s-2.1-4.6-4.6-4.6
			c-0.9,0-1.8,0.3-2.5,0.8c2.8-7.8,5.1-16.1,7-25.2c0.8,1.8,2.6,3.2,4.7,3.2c2.8,0,5.1-2.3,5.1-5.1s-2.3-5.1-5.1-5.1
			c-1.4,0-2.7,0.6-3.6,1.5c2.5-13.2,4-27.7,4.7-43.4c0-0.5,0-1,0-1.5c0.7,0.7,1.7,1.2,2.8,1.2c2.1,0,3.9-1.7,3.9-3.9
			c0-2.1-1.7-3.9-3.9-3.9c-1,0-2,0.4-2.7,1.1c0.2-14.4-1-27.7-3.5-39.7c4.6-12.1,6-26,6.1-38.4c1,2,3,3.4,5.3,3.4
			c3.3,0,5.9-2.7,5.9-5.9s-2.7-5.9-5.9-5.9c-2.4,0-4.4,1.4-5.4,3.4c-0.2-10.6-1.4-19.8-2.2-25.3l0-0.3l-0.1-0.3
			c-1.3-4.3-2.9-8.4-4.6-12.3c0.2-0.5,0.3-1,0.5-1.6c0.7,1.4,2.2,2.4,3.9,2.4c2.4,0,4.4-2,4.4-4.4c0-2.4-2-4.4-4.4-4.4
			c-1.2,0-2.4,0.5-3.2,1.4c0.4-5.5-0.1-12.2-1.3-17.5c3.7-3,7.3-7,10.6-11.9l1,2.4c1,2.6,2.3,5.2,3.8,7.6c3.7,6.2,8.8,14.2,12,17.3
			l0.9,0.9l1.3,0.2c2.5,0.4,5.7,1.6,9.3,3.5c-1.4,0.6-2.4,2-2.4,3.7c0,2.2,1.8,4.1,4.1,4.1c2.2,0,4.1-1.8,4.1-4.1c0-0.1,0-0.1,0-0.2
			c8.5,5.7,15.8,12.7,15.9,12.8l1.1,1.1h1c-1.3,1-2.1,2.5-2.1,4.2c0,2.9,2.3,5.2,5.2,5.2s5.2-2.3,5.2-5.2c0-1.7-0.8-3.2-2.1-4.2
			h15.8h2.3h3.2l1.9-0.9l2.8-1.4c5.8-2.9,10.2-8.1,12.1-14.4l1.5-4.9H976.4z M845.8,861.4c-4.1-18.1-4.1-37.1,0-53.2
			C849.9,824.4,849.9,843.3,845.8,861.4z M848,783.6c-0.8,3.1-1.5,6.1-2.1,9.2c-0.7-3.1-1.4-6.2-2.1-9.2c-1.1-4.2-2.2-8.3-3.4-12.2
			c2.2-4.7,4.1-9.8,5.5-15.1c1.4,5.3,3.3,10.4,5.5,15.1C850.2,775.3,849,779.4,848,783.6z"/>
		<circle fill="#F79328" cx="740" cy="631.2" r="4.8"/>
		<circle fill="#F79328" cx="718.1" cy="613.4" r="3.4"/>
		<circle fill="#F79328" cx="728.7" cy="617.3" r="2.8"/>
		<circle fill="#F79328" cx="732.2" cy="597.8" r="3.6"/>
		<circle fill="#F79328" cx="706.9" cy="639.6" r="3.6"/>
		<circle fill="#F79328" cx="750.1" cy="607.9" r="2.1"/>
		<circle fill="#F79328" cx="761.2" cy="574.8" r="2.8"/>
		<circle fill="#F79328" cx="742.1" cy="578.6" r="3.9"/>
		<circle fill="#F79328" cx="740.2" cy="564.1" r="4.4"/>
		<circle fill="#F79328" cx="927.9" cy="607.5" r="6.1"/>
		<circle fill="#F79328" cx="938.2" cy="588.2" r="4.2"/>
		<circle fill="#F79328" cx="946.8" cy="618.1" r="4.5"/>
		<circle fill="#F79328" cx="963.2" cy="603.2" r="4.5"/>
		<circle fill="#F79328" cx="952.5" cy="601.3" r="2.7"/>
		<circle fill="#F79328" cx="955" cy="589.1" r="2.3"/>
		<circle fill="#F79328" cx="963.3" cy="576.7" r="2"/>
		<circle fill="#F79328" cx="776" cy="546.8" r="4"/>
		<circle fill="#F79328" cx="782.4" cy="526.9" r="3.6"/>
		<circle fill="#F79328" cx="815.4" cy="525.6" r="2.4"/>
		<circle fill="#F79328" cx="885.9" cy="528.4" r="3.9"/>
		<circle fill="#F79328" cx="859.8" cy="495.8" r="3.6"/>
		<circle fill="#F79328" cx="829.8" cy="498.2" r="2.3"/>
		<circle fill="#F79328" cx="844.6" cy="483.9" r="3.6"/>
		<circle fill="#F79328" cx="855.3" cy="485.7" r="1.8"/>
		<circle fill="#F79328" cx="803.4" cy="675.2" r="2.4"/>
		<circle fill="#F79328" cx="789.9" cy="679.1" r="2.6"/>
		<circle fill="#F79328" cx="782.4" cy="657.6" r="3.1"/>
		<circle fill="#F79328" cx="797.6" cy="664.2" r="2.4"/>
		<circle fill="#F79328" cx="801" cy="647.3" r="2.5"/>
		<path fill="#F79328" d="M898,672.8c2.4,0,4.3-1.9,4.3-4.3c0-2.4-1.9-4.3-4.3-4.3c-0.9,0-1.8,0.3-2.5,0.8c-0.2-0.8-0.9-1.4-1.7-1.4
			c-1,0-1.8,0.8-1.8,1.8c0,1,0.8,1.8,1.8,1.8c0.1,0,0.1,0,0.2,0c-0.1,0.4-0.2,0.9-0.2,1.4C893.8,670.9,895.7,672.8,898,672.8z"/>
		<circle fill="#F79328" cx="892" cy="685.2" r="3.5"/>
		<circle fill="#F79328" cx="888.8" cy="645.7" r="3.3"/>
		<circle fill="#F79328" cx="887.9" cy="634.7" r="2.4"/>
		<circle fill="#F79328" cx="925.9" cy="675.2" r="2.4"/>
		<circle fill="#F79328" cx="954" cy="681.5" r="1.3"/>
		<circle fill="#F79328" cx="963.5" cy="675.7" r="2.3"/>
		<circle fill="#F79328" cx="716" cy="675" r="5.5"/>
		<circle fill="#F79328" cx="703.3" cy="660.9" r="3.3"/>
		<circle fill="#F79328" cx="756.3" cy="681.6" r="4.1"/>
		<circle fill="#F79328" cx="768" cy="675.2" r="4"/>
		<circle fill="#F79328" cx="791.2" cy="709.4" r="3.9"/>
		<circle fill="#F79328" cx="806.3" cy="737.4" r="2.9"/>
		<circle fill="#F79328" cx="793.2" cy="728.3" r="2"/>
		<circle fill="#F79328" cx="803" cy="702.5" r="3"/>
		<circle fill="#F79328" cx="886.9" cy="736.8" r="7"/>
		<circle fill="#F79328" cx="900.8" cy="727.1" r="2.7"/>
		<circle fill="#F79328" cx="909.5" cy="711.7" r="3.7"/>
		<circle fill="#F79328" cx="891.2" cy="721.7" r="2.7"/>
		<circle fill="#F79328" cx="895.7" cy="754.9" r="3.6"/>
		<circle fill="#F79328" cx="893.4" cy="772.2" r="6.5"/>
		<circle fill="#F79328" cx="804.1" cy="762.9" r="3.1"/>
		<circle fill="#F79328" cx="799.6" cy="781.1" r="6.4"/>
		<circle fill="#F79328" cx="802.8" cy="818.4" r="3.2"/>
		<circle fill="#F79328" cx="808.8" cy="832.8" r="2.5"/>
		<circle fill="#F79328" cx="884.4" cy="806.1" r="3.1"/>
		<circle fill="#F79328" cx="886.7" cy="823.9" r="2.3"/>
		<circle fill="#F79328" cx="879" cy="855.2" r="4.2"/>
		<circle fill="#F79328" cx="822.1" cy="885.6" r="1.6"/>
	</g>
	<g>
		<path fill="#FEC935" d="M965.9,669.5l3.9-1.9c4.9-2.4,8.5-6.8,10.1-12l0,0h-11.3L965.9,669.5z"/>
		<path fill="#F8B12B" d="M970.2,644.5h-25.5l0.7,5.6c-2-3-4.4-6.5-6.6-10.1c-3.5-5.7-6.7-11.7-7.9-16.1c-2.9-2.9-12-7.9-16.3-10.2
			c2.1-4.1,3.3-9,3.3-14.4c0-13.6-7.8-24.6-17.4-24.6c-9.6,0-17.4,11-17.4,24.6c0,7,2.1,13.4,5.4,17.8l0,0l3.1,7.8
			c1,2.4,2.1,4.8,3.5,7c3,4.9,8.4,13.6,11.4,16.6c4.9,0.7,10.8,3.8,16.2,7.4c9.1,6,16.8,13.5,16.8,13.5h26.2l7.7-13.9L970.2,644.5z"
			/>
	</g>
	<g>
		<polygon fill="#383838" points="845.8,106.5 781.4,112.5 781.4,381.5 845.8,381.5 910.3,381.5 910.3,112.5 		"/>
		<polygon fill="#383838" points="799.6,77.3 892.1,77.3 874,105 845.8,130.2 817.3,103.8 		"/>
		<g>
			<path fill="#8AC249" d="M804.2,99.2c-12.3,0-22.9,7.4-27.8,18.1c-1.8,4-2.9,8.5-2.9,13.3v0c0,13.1,7.9,24.4,19.2,29.1
				c4.7,13.4,13.3,28.2,24.2,35.3c-3,8.9-2.9,22.7-0.3,26.8h14.9L807.2,99.2H804.2z"/>
			<path fill="#8AC249" d="M915.3,117.3c-4.9-10.7-15.5-18.1-27.8-18.1h-3l-24.2,122.4h14.9c2.6-4.1,2.6-17.8-0.4-26.8
				c10.9-7.1,19.5-21.8,24.2-35.3c11.2-4.7,19.2-15.9,19.2-29.1v0C918.2,125.8,917.1,121.3,915.3,117.3z"/>
			<polygon fill="#444444" points="807.2,99.2 831.5,221.6 845.8,221.6 860.2,221.6 884.5,99.2 			"/>
		</g>
		<rect x="825.9" y="75.1" fill="#444444" width="39.9" height="24.1"/>
		<ellipse fill="#D1D3D4" cx="845.8" cy="460.2" rx="77.3" ry="13.4"/>
		<path fill="#444444" d="M805.7,441.8c-5.9,4.6-9.3,18.5-9.3,18.5H826c4.2-4.7,1.5-18.5,1.5-18.5H805.7z"/>
		<path fill="#8AC249" d="M810.9,235.7c-6.7,21-7.4,44.8-1.9,66.3c3.1,12.1,8,23.4,14.9,33.1c0.1,0.1,0.1,0.2,0.2,0.3l0,0l0,0
			c13.5-18.8,19.7-44,18.7-68.6C839,249.5,822,238.1,810.9,235.7z"/>
		<path fill="#444444" d="M875.1,221.7L875.1,221.7L875.1,221.7l-15.2,0h-14.1h-14.1h-15.1h0l0,0c-2.2,4.5-4.1,9.2-5.6,14
			c11.1,2.4,28.1,13.8,31.9,31h3h3c3.8-17.2,20.8-28.7,31.9-31C879.2,230.8,877.4,226.1,875.1,221.7z"/>
		<path fill="#8AC249" d="M880.8,235.7c6.7,21,7.4,44.8,1.9,66.3c-3.1,12.1-8,23.4-14.9,33.1c-0.1,0.1-0.1,0.2-0.2,0.3l0,0l0,0
			c-13.5-18.8-19.7-44-18.7-68.6C852.6,249.5,869.7,238.1,880.8,235.7z"/>
		<g>
			<ellipse fill="#8AC249" cx="781.4" cy="161.4" rx="18.3" ry="35.2"/>
			<path fill="#444444" d="M765.9,262.5l4.5,23.8h22.1l-2.2-10.8h7.5c0-11.1-8.3-16.6-14.5-16.6L765.9,262.5z"/>
			<path fill="#8AC249" d="M791.3,211c-1.1-23.3-8-41.2-16.3-41.2c-7.5,0-13.8,14.7-15.8,34.7l27.7,17.3
				C788.2,217.6,789.6,213.9,791.3,211z"/>
			<path fill="#444444" d="M788.8,220.6L757.4,201c-0.5,4.7-0.7,9.7-0.7,14.9c0,19.9,3.7,37.2,9.2,46.6h18.8
				c-0.1-2.4-0.2-4.9-0.2-7.5C784.5,241.9,786.2,229.9,788.8,220.6z"/>
		</g>
		<g>
			<ellipse fill="#8AC249" cx="910.3" cy="161.4" rx="18.3" ry="35.2"/>
			<path fill="#444444" d="M925.8,262.5l-4.5,23.8h-22.1l2.2-10.8h-7.5c0-11.1,8.3-16.6,14.5-16.6L925.8,262.5z"/>
			<path fill="#8AC249" d="M900.4,211c1.1-23.3,8-41.2,16.3-41.2c7.5,0,13.8,14.7,15.8,34.7l-27.7,17.3
				C903.5,217.6,902,213.9,900.4,211z"/>
			<path fill="#444444" d="M902.9,220.6l31.4-19.6c0.5,4.7,0.7,9.7,0.7,14.9c0,19.9-3.7,37.2-9.2,46.6H907c0.1-2.4,0.2-4.9,0.2-7.5
				C907.1,241.9,905.5,229.9,902.9,220.6z"/>
		</g>
		<path fill="#383838" d="M805.7,441.8h21.8c-4.3-24.9-6.3-42.8-0.2-73.4c-0.2-6.2-0.6-12.3-1.3-18.4h-28.1
			C794.5,381,797.1,414.5,805.7,441.8z"/>
		<path fill="#66A142" d="M809,301.9c-5.5,14.3-9.2,30.8-11.1,48H826c-0.5-5-1.2-10-2.1-14.9C817,325.3,812,314,809,301.9z"/>
		<path fill="#66A142" d="M882.7,301.9c-3.1,12.1-8,23.4-14.9,33.1c-0.9,4.9-1.6,9.9-2.1,14.9h28.1
			C892,332.7,888.3,316.2,882.7,301.9z"/>
		<path fill="#FFCD85" d="M845.8,51c-11,0-19.9,9.1-19.9,20.3v18c0,11.2,8.9,20.3,19.9,20.3c11,0,19.9-9.1,19.9-20.3v-18
			C865.8,60.1,856.8,51,845.8,51z"/>
		<path fill="none" stroke="#000000" stroke-miterlimit="10" d="M860.6,75.1"/>
		<polygon fill="#E3A153" points="850.1,94.2 845.8,97.1 841.6,94.2 		"/>
		<rect x="815" y="216" fill="#383838" width="61.7" height="9"/>
		<path fill="#F6A825" d="M845.8,49.2L845.8,49.2L845.8,49.2c-12.2,0-22,9.9-22,22V81h2.1v-3.5c0-1.2,1-2.2,2.2-2.2h0.3
			c1.2,0,2.2-1,2.2-2.2V68c0-1.2,1-2.2,2.2-2.2h26c1.2,0,2.2,1,2.2,2.2v5.1c0,1.2,1,2.2,2.2,2.2h0.3c1.2,0,2.2,1,2.2,2.2V81h2.1
			v-9.8C867.9,59,858,49.2,845.8,49.2z"/>
		<path fill="#E3A153" d="M821.5,84.8v0.3c0,2.5,2,4.5,4.5,4.5v-9.2C823.5,80.3,821.5,82.3,821.5,84.8z"/>
		<path fill="#E3A153" d="M870.2,84.8v0.3c0,2.5-2,4.5-4.5,4.5v-9.2C868.2,80.3,870.2,82.3,870.2,84.8z"/>
		<path fill="#444444" d="M790,391.3c0,0-3-30.7,7.9-41.4H826c5.6,14.7,5.3,41.4,5.3,41.4H790z"/>
		<path fill="#444444" d="M886,441.8c5.9,4.6,9.3,18.5,9.3,18.5h-29.6c-4.2-4.7-1.5-18.5-1.5-18.5H886z"/>
		<path fill="#383838" d="M886,441.8h-21.8c4.3-24.9,6.3-42.8,0.2-73.4c0.2-6.2,0.6-12.3,1.3-18.4h28.1
			C897.2,381,894.6,414.5,886,441.8z"/>
		<path fill="#444444" d="M901.7,391.3c0,0,3-30.7-7.9-41.4h-28.1c-5.6,14.7-5.3,41.4-5.3,41.4H901.7z"/>
		<path fill="#383838" d="M860.9,75.4l-0.3-0.3c0,1.6-1.3,2.9-2.9,2.9h-4.6c-1.9,0-3.7,0.8-5,2.2l-2.2,2.4l-2.2-2.4
			c-1.3-1.4-3.1-2.2-5-2.2H834c-1.6,0-2.9-1.3-2.9-2.9l-0.3,0.3c-1.4,1.7-2.2,3.8-2.2,6v7.3c0,3,0.8,6,2.4,8.5V94
			c0-1.2,0.5-2.4,1.3-3.2c0.9-0.9,2-1.3,3.2-1.3h10.2h10.2c1.2,0,2.4,0.5,3.2,1.3c0.9,0.9,1.3,2,1.3,3.2v3.3
			c1.6-2.6,2.4-5.5,2.4-8.5v-7.3C863.1,79.2,862.3,77.1,860.9,75.4z"/>
		<path opacity="0.22" fill="#383838" d="M895.4,138l-1.8-6.8c-2.2-8-10.1-13-18.3-11.5c-15.7,3-43.3,3-59,0
			c-8.1-1.5-16.1,3.5-18.3,11.5l-1.8,6.8c-2.5,9.4,5.9,18.2,15.4,16l0,0c18.7-4.3,49.7-4.3,68.4,0h0
			C889.6,156.2,898,147.5,895.4,138z"/>
		<path fill="#515251" d="M845.8,130.2l-7.8-8.4c-13.8-14.9-24.3-32.6-30.8-51.8l0,0h-24.4l8.2,12c11.9,17.4,27.5,32,45.6,42.8
			L845.8,130.2z"/>
		<path fill="#515251" d="M845.8,130.2l7.8-8.4c13.8-14.9,24.3-32.6,30.8-51.8l0,0h24.4l-8.2,12c-11.9,17.4-27.5,32-45.6,42.8
			L845.8,130.2z"/>
	</g>
	<g>
		<ellipse fill="#D1D3D4" cx="262.5" cy="459.6" rx="77.3" ry="14.1"/>
		<g>
			<polygon fill="#B72025" points="332.4,91.4 262.5,91.4 192.6,91.4 187,100.3 187,368.5 262.5,368.5 338,368.5 338,100.3 			"/>
			<path fill="#5AC2EF" d="M301.9,80.4h-78.8c-18.2,0-32.9,14.7-32.9,32.9v0c0,13.2,7.7,24.5,18.9,29.8
				c4.6,14.3,13.3,30.2,24.4,37.7c-3,9.4-2.9,23.8-0.3,28.1h29.3h29.3c2.6-4.3,2.6-18.7-0.4-28.1c11.1-7.6,19.8-23.5,24.4-37.7
				c11.2-5.3,18.9-16.6,18.9-29.8v0C334.8,95.1,320,80.4,301.9,80.4z"/>
			<path fill="#3BB2E6" d="M311.2,116.7l-2-7.6c-2.4-8.9-11.2-14.4-20.3-12.7c-17.4,3.3-35.3,3.3-52.8,0c-9-1.7-17.9,3.8-20.3,12.7
				l-2,7.6c-2.8,10.5,6.5,20.2,17.1,17.8h0c20.8-4.7,42.4-4.7,63.2,0h0C304.7,136.9,314,127.2,311.2,116.7z"/>
			<path fill="#D33329" d="M222.3,440.2c-5.9,4.8-6.7,19.4-6.7,19.4h16.5c4.2-4.9,1.9-19.4,1.9-19.4H222.3z"/>
			<path fill="#5AC2EF" d="M227.5,223.7c-6.7,22-7.4,47-1.9,69.6c3.1,12.7,8,24.6,14.9,34.8c0.1,0.1,0.1,0.2,0.2,0.3l0,0l0,0
				c13.5-19.8,19.7-46.2,18.7-72.1C255.7,238.2,238.6,226.2,227.5,223.7z"/>
			<path fill="#D33329" d="M302.6,440.2c5.9,4.8,6.7,19.4,6.7,19.4h-16.5c-4.2-4.9-1.9-19.4-1.9-19.4H302.6z"/>
			<path fill="#E94D40" d="M291.8,209L291.8,209L291.8,209l-15.2,0h-14.1h-14.1h-15.1h0l0,0c-2.2,4.7-4.1,9.6-5.6,14.7
				c11.1,2.5,28.1,14.5,31.9,32.6h3h3c3.8-18.1,20.8-30.1,31.9-32.6C295.9,218.6,294,213.7,291.8,209z"/>
			<path fill="#5AC2EF" d="M297.4,223.7c6.7,22,7.4,47,1.9,69.6c-3.1,12.7-8,24.6-14.9,34.8c-0.1,0.1-0.1,0.2-0.2,0.3l0,0l0,0
				c-13.5-19.8-19.7-46.2-18.7-72.1C269.3,238.2,286.3,226.2,297.4,223.7z"/>
			<g>
				<ellipse fill="#5AC2EF" cx="198" cy="145.8" rx="18.3" ry="37"/>
				<path fill="#5AC2EF" d="M207.9,197.9c-1.1-24.4-8-43.2-16.3-43.2c-9.1,0-16.4,22.5-16.4,50.2c0,18.5,3.3,34.6,8.1,43.3H200
					c-0.1-2.3-0.2-4.6-0.2-7C199.8,222.7,203.1,206.6,207.9,197.9z"/>
				<path fill="#FFCD85" d="M183.3,248.1l3.7,28.8h22.1l-2.2-11.3h7.5c0-11.6-8.3-17.5-14.5-17.5H183.3z"/>
			</g>
			<g>
				<ellipse fill="#5AC2EF" cx="327" cy="145.8" rx="18.3" ry="37"/>
				<path fill="#5AC2EF" d="M317,197.9c1.1-24.4,8-43.2,16.3-43.2c9.1,0,16.4,22.5,16.4,50.2c0,18.5-3.3,34.6-8.1,43.3H325
					c0.1-2.3,0.2-4.6,0.2-7C325.1,222.7,321.9,206.6,317,197.9z"/>
				<path fill="#FFCD85" d="M341.6,248.1l-3.7,28.8h-22.1l2.2-11.3h-7.5c0-11.6,8.3-17.5,14.5-17.5H341.6z"/>
			</g>
			<path fill="#E94D40" d="M222.3,440.2h11.8c-4.3-26.2-1-55,9.8-77.1c-0.2-6.5-0.6-13-1.3-19.3h-28.1
				C211.2,376.3,213.8,411.5,222.3,440.2z"/>
			<path fill="#3BB2E6" d="M225.6,293.3c-5.5,15-9.2,32.3-11.1,50.4h28.1c-0.5-5.3-1.2-10.5-2.1-15.6
				C233.7,317.9,228.7,306,225.6,293.3z"/>
			<path fill="#3BB2E6" d="M299.3,293.3c-3.1,12.7-8,24.6-14.9,34.8c-0.9,5.1-1.6,10.4-2.1,15.6h28.1
				C308.6,325.6,304.9,308.3,299.3,293.3z"/>
			<path fill="#E94D40" d="M282.3,343.7c-0.7,6.4-1.1,12.8-1.3,19.3c10.9,22.1,14.1,50.9,9.8,77.1h11.8c8.6-28.6,11.2-63.8,7.8-96.4
				H282.3z"/>
			<path fill="#E94D40" d="M262.5,107.5c-23.2,0-58.2-25.4-75.5-7.1v0c0-12.2,9.9-22.1,22.1-22.1h53.3L262.5,107.5z"/>
			<path fill="#E94D40" d="M262.5,107.5c23.2,0,58.2-25.4,75.5-7.1v0c0-12.2-9.9-22.1-22.1-22.1h-53.3L262.5,107.5z"/>
			<g>
				<path fill="#FFCD85" d="M262.5,91.4L262.5,91.4c-10.1,0-18.3-8.2-18.3-18.3V55.3c0-10.1,8.2-18.3,18.3-18.3h0
					c10.1,0,18.3,8.2,18.3,18.3v17.8C280.8,83.2,272.6,91.4,262.5,91.4z"/>
				<path fill="#754C29" d="M248,55.1v6.3h-3.8v3.8H242l-0.5-1.8c-2.5-9.4-3.8-19-3.8-28.7v0H248V55.1z"/>
				<path fill="#754C29" d="M277,61.4h3.8v3.8h2.1l0.5-1.8c0.7-2.8,1.4-5.6,1.9-8.4H277V61.4z"/>
				<path fill="#8B5E3C" d="M285.4,54.3c-0.6-6.9-3.7-13-8.5-17.4c-4.8-4.5-11.3-7.2-18.4-7.2H248v25.3h29h8.3h0.2v0
					C285.5,54.8,285.4,54.6,285.4,54.3z"/>
				<path fill="none" stroke="#000000" stroke-miterlimit="10" d="M277.2,55.1"/>
				<path fill="#F3BA6B" d="M242.4,65.2c-2.1,0-3.9,1.7-3.9,3.9s1.7,3.9,3.9,3.9h1.8v-7.7H242.4z"/>
				<path fill="#F3BA6B" d="M282.6,65.2c2.1,0,3.9,1.7,3.9,3.9s-1.7,3.9-3.9,3.9h-1.8v-7.7H282.6z"/>
				<polygon fill="#E3A153" points="266.8,75.1 262.5,78.2 258.2,75.1 				"/>
			</g>
		</g>
	</g>
	<g>
		<g>
			<ellipse fill="#FFCD85" cx="496.2" cy="184" rx="18.1" ry="25.5"/>
			<path fill="#FFCD85" d="M443.8,245l-19.8,18.6l17.1,14.6l6.2-5.4l3.8,3.5c8.6-8.6,4.4-19.5,4.4-19.5L443.8,245z"/>
			<g>
				<path fill="#594A42" d="M443.8,245l11.8,11.8c0,0,8.1-7.7,17.5-14l-16.6-16.6C450.6,235.9,443.8,245,443.8,245z"/>
				<path fill="#FFCD85" d="M483.9,197.8c0,0-15.3,7.7-19.2,11.7c-1.2,4.5-4.5,10.7-8.2,16.7l16.6,16.6c5.6-3.7,11.7-7,16.8-7.7
					c3.1-3.1,8.7-12,11.8-17.2c1.4-2.3,2.6-4.8,3.6-7.3l3.2-8.1L483.9,197.8z"/>
			</g>
		</g>
		<g>
			<ellipse fill="#FFCD85" cx="612.1" cy="184" rx="18.1" ry="25.5"/>
			<path fill="#FFCD85" d="M664.5,245l19.8,18.6l-17.1,14.6l-6.2-5.4l-3.8,3.5c-8.6-8.6-4.4-19.5-4.4-19.5L664.5,245z"/>
			<g>
				<path fill="#594A42" d="M664.5,245l-11.8,11.8c0,0-8.1-7.7-17.5-14l16.6-16.6C657.7,235.9,664.5,245,664.5,245z"/>
				<path fill="#FFCD85" d="M624.4,197.8c0,0,15.3,7.7,19.2,11.7c1.2,4.5,4.5,10.7,8.2,16.7l-16.6,16.6c-5.6-3.7-11.7-7-16.8-7.7
					c-3.1-3.1-8.7-12-11.8-17.2c-1.4-2.3-2.6-4.8-3.6-7.3l-3.2-8.1L624.4,197.8z"/>
			</g>
		</g>
		<ellipse fill="#D1D3D4" cx="554.2" cy="459.6" rx="77.3" ry="14.1"/>
		<path fill="#E94D40" d="M625,159.6c0-16.4-13.3-29.6-29.6-29.6H513c-16.4,0-29.6,13.3-29.6,29.6c0,11.9,7,22.1,17,26.8
			c4.2,12.9,12,27.2,22,34c-2.7,8.4-2.6,21.5-0.3,25.3h64.2c2.3-3.8,2.4-16.9-0.3-25.3c10-6.8,17.8-21.1,22-34
			C618,181.7,625,171.5,625,159.6z"/>
		<path fill="#493B34" d="M510.1,441.2c-6.5,4-7.3,16.4-7.3,16.4h18.1c4.6-4.2,2.1-16.4,2.1-16.4H510.1z"/>
		<path fill="#E94D40" d="M515.8,258.2c-7.4,18.6-8.1,39.7-2.1,58.8c3.4,10.7,8.8,20.8,16.4,29.4c0.1,0.1,0.1,0.2,0.2,0.3l0,0l0,0
			c14.9-16.7,21.7-39,20.5-60.9C546.7,270.5,528,260.3,515.8,258.2z"/>
		<path fill="#493B34" d="M598.2,441.2c6.5,4,7.3,16.4,7.3,16.4h-18.1c-4.6-4.2-2.1-16.4-2.1-16.4H598.2z"/>
		<path fill="#E94D40" d="M586.3,245.7L586.3,245.7L586.3,245.7l-16.6,0h-15.5h-15.5H522h0l0,0c-2.4,4-4.5,8.1-6.2,12.5
			c12.2,2.1,30.9,12.3,35,27.6h3.3h3.3c4.1-15.3,22.9-25.5,35-27.6C590.8,253.9,588.7,249.7,586.3,245.7z"/>
		<path fill="#E94D40" d="M592.5,258.2c7.4,18.6,8.1,39.7,2.1,58.8c-3.4,10.7-8.8,20.8-16.4,29.4c-0.1,0.1-0.1,0.2-0.2,0.3l0,0l0,0
			c-14.9-16.7-21.7-39-20.5-60.9C561.6,270.5,580.3,260.3,592.5,258.2z"/>
		<path fill="#FFCD85" d="M555.9,140.9h-3.6c-10.1,0-18.3-8.2-18.3-18.3V99.5c0-10.1,8.2-18.3,18.3-18.3h3.6
			c10.1,0,18.3,8.2,18.3,18.3v23.1C574.3,132.8,566.1,140.9,555.9,140.9z"/>
		<path fill="none" stroke="#000000" stroke-miterlimit="10" d="M570.4,101.1"/>
		<polygon fill="#E3A153" points="558.9,123.1 554.2,126.5 549.5,123.1 		"/>
		<path fill="#DD423A" d="M603.8,162.6l-1.8-6.8c-2.2-8-10.1-13-18.3-11.5c-15.7,3-43.3,3-59,0c-8.1-1.5-16.1,3.5-18.3,11.5
			l-1.8,6.8c-2.5,9.4,5.9,18.2,15.4,16l0,0c18.7-4.3,49.7-4.3,68.4,0h0C597.9,180.8,606.3,172.1,603.8,162.6z"/>
		<rect x="520.5" y="240.5" fill="#594A42" width="67.4" height="8.1"/>
		<path fill="#E94D40" d="M554.2,80.3L554.2,80.3c-11.5,0-20.9,9.4-20.9,20.9v15.3l20.9,8.3l20.9-8.3v-15.3
			C575.1,89.7,565.7,80.3,554.2,80.3z"/>
		<path fill="#DD423A" d="M533.4,83.2c0,0,3.5,9.1,3.7,9.3c0.8,0.8,2.7,0.2,4.2-1.4c1.5-1.5,2.2-3.4,1.4-4.2
			C542.5,86.7,533.4,83.2,533.4,83.2z"/>
		<path fill="#DD423A" d="M574.9,83.2c0,0-3.5,9.1-3.7,9.3c-0.8,0.8-2.7,0.2-4.2-1.4c-1.5-1.5-2.2-3.4-1.4-4.2
			C565.8,86.7,574.9,83.2,574.9,83.2z"/>
		<g>
			<path fill="#FFFFFF" d="M569.7,104.3L564,106c-5,1.6-7.9,6.9-6.3,11.9l5.6-1.7C568.4,114.6,571.2,109.3,569.7,104.3z"/>
			<path fill="#FFFFFF" d="M544.3,106l-5.6-1.7c-1.6,5,1.3,10.4,6.3,11.9l5.6,1.7C552.2,112.9,549.3,107.6,544.3,106z"/>
		</g>
		<g>
			<path fill="#594A42" d="M500.6,368.2c-2.1,25.1,1,51.3,9.5,73H523c-4.7-22.1-1.1-46.5,10.8-65.2c-0.1-3.1-0.3-6.1-0.6-9.2
				l-23.5,16.3L500.6,368.2z"/>
			<path fill="#DD423A" d="M530.1,346.4c-7.6-8.6-13-18.7-16.4-29.4c-6.1,12.7-10.1,27.3-12.2,42.6c-0.4,2.8-0.7,5.7-0.9,8.5l9.1,15
				l23.5-16.3c-0.2-2.4-0.5-4.8-0.8-7.2C531.8,355.2,531,350.8,530.1,346.4z"/>
			<path fill="#DD423A" d="M607.7,368.2c-0.2-2.9-0.5-5.7-0.9-8.5c-2-15.3-6.1-30-12.2-42.6c-3.4,10.7-8.8,20.8-16.4,29.4
				c-0.9,4.3-1.7,8.8-2.3,13.2c-0.3,2.4-0.6,4.8-0.8,7.2l23.5,16.3L607.7,368.2z"/>
			<path fill="#594A42" d="M598.6,383.1l-23.5-16.3c-0.3,3-0.5,6.1-0.6,9.2c11.9,18.7,15.5,43.1,10.8,65.2h12.9
				c8.5-21.7,11.6-47.9,9.5-73L598.6,383.1z"/>
		</g>
	</g>
	<g>
		<rect x="1117.6" y="83.3" fill="#444444" width="39.9" height="23.6"/>
		<g>
			<path fill="#444444" d="M1105.1,135.9l32.4,31l32.4-31c7.6-7.2,17.6-11.3,28.1-11.3h9c-4.9-10.5-15.5-17.7-27.8-17.7h-83.2
				c-12.3,0-22.9,7.3-27.8,17.7h9C1087.5,124.7,1097.6,128.7,1105.1,135.9z"/>
			<path fill="#FDD836" d="M1198,124.7c-10.5,0-20.5,4-28.1,11.3l-32.4,31l-32.4-31c-7.6-7.2-17.6-11.3-28.1-11.3h-9
				c-1.8,3.9-2.9,8.3-2.9,13v0c0,12.9,7.9,23.9,19.2,28.5c4.7,13.1,13.3,27.6,24.2,34.5c-3,8.7-2.9,22.2-0.3,26.2h29.3h29.3
				c2.6-4,2.6-17.5-0.4-26.2c10.9-6.9,19.5-21.4,24.2-34.5c11.2-4.6,19.2-15.6,19.2-28.5v0c0-4.6-1-9-2.9-13H1198z"/>
		</g>
		<ellipse fill="#D1D3D4" cx="1137.5" cy="460.5" rx="77.3" ry="13.2"/>
		<path fill="#F8BE2D" d="M1097.4,442.4c-5.9,4.5-6.7,18.1-6.7,18.1h16.5c4.2-4.6,1.9-18.1,1.9-18.1H1097.4z"/>
		<path fill="#444444" d="M1102.6,240.6c-6.7,20.5-7.4,43.8-1.9,64.9c3.1,11.8,8,22.9,14.9,32.4c0.1,0.1,0.1,0.2,0.2,0.3l0,0v0
			c13.5-18.4,19.7-43.1,18.7-67.2C1130.7,254.1,1113.7,242.9,1102.6,240.6z"/>
		<path fill="#F8BE2D" d="M1177.7,442.4c5.9,4.5,6.7,18.1,6.7,18.1h-16.5c-4.2-4.6-1.9-18.1-1.9-18.1H1177.7z"/>
		<path fill="#444444" d="M1166.8,226.9L1166.8,226.9L1166.8,226.9l-15.2,0h-14.1h-14.1h-15.1h0l0,0c-2.2,4.4-4.1,9-5.6,13.7
			c11.1,2.3,28.1,13.5,31.9,30.4h3h3c3.8-16.9,20.8-28.1,31.9-30.4C1170.9,235.9,1169,231.3,1166.8,226.9z"/>
		<path fill="#444444" d="M1172.5,240.6c6.7,20.5,7.4,43.8,1.9,64.9c-3.1,11.8-8,22.9-14.9,32.4c-0.1,0.1-0.1,0.2-0.2,0.3l0,0v0
			c-13.5-18.4-19.7-43.1-18.7-67.2C1144.3,254.1,1161.4,242.9,1172.5,240.6z"/>
		<g>
			<ellipse fill="#FDD836" cx="1073" cy="167.9" rx="18.3" ry="34.5"/>
			<path fill="#444444" d="M1057.6,266.8l4.5,23.3h22.1l-2.2-10.5h7.5c0-10.8-8.3-16.3-14.5-16.3L1057.6,266.8z"/>
			<path fill="#FDD836" d="M1083,216.5c-1.1-22.8-8-40.3-16.3-40.3c-7.5,0-13.8,14.4-15.8,33.9l27.7,17
				C1079.8,222.9,1081.3,219.3,1083,216.5z"/>
			<path fill="#444444" d="M1080.5,225.8l-31.4-19.2c-0.5,4.6-0.7,9.5-0.7,14.6c0,19.5,3.7,36.5,9.2,45.7h18.8
				c-0.1-2.4-0.2-4.8-0.2-7.3C1076.2,246.7,1077.8,235,1080.5,225.8z"/>
		</g>
		<g>
			<ellipse fill="#FDD836" cx="1202" cy="167.9" rx="18.3" ry="34.5"/>
			<path fill="#444444" d="M1217.5,266.8l-4.5,23.3h-22.1l2.2-10.5h-7.5c0-10.8,8.3-16.3,14.5-16.3L1217.5,266.8z"/>
			<path fill="#FDD836" d="M1192.1,216.5c1.1-22.8,8-40.3,16.3-40.3c7.5,0,13.8,14.4,15.8,33.9l-27.7,17
				C1195.2,222.9,1193.7,219.3,1192.1,216.5z"/>
			<path fill="#444444" d="M1194.5,225.8l31.4-19.2c0.5,4.6,0.7,9.5,0.7,14.6c0,19.5-3.7,36.5-9.2,45.7h-18.8
				c0.1-2.4,0.2-4.8,0.2-7.3C1198.8,246.7,1197.2,235,1194.5,225.8z"/>
		</g>
		<path fill="#FDD836" d="M1097.4,442.4h11.8c-4.3-24.4-1-51.3,9.8-71.9c-0.2-6.1-0.6-12.1-1.3-18h-28.1
			C1086.2,382.9,1088.8,415.7,1097.4,442.4z"/>
		<path fill="#383838" d="M1100.7,305.5c-5.5,14-9.2,30.1-11.1,47h28.1c-0.5-4.9-1.2-9.8-2.1-14.6
			C1108.7,328.4,1103.7,317.3,1100.7,305.5z"/>
		<path fill="#383838" d="M1174.4,305.5c-3.1,11.8-8,22.9-14.9,32.4c-0.9,4.8-1.6,9.7-2.1,14.6h28.1
			C1183.6,335.6,1179.9,319.4,1174.4,305.5z"/>
		<path fill="#FDD836" d="M1157.3,352.5c-0.7,5.9-1.1,12-1.3,18c10.9,20.6,14.1,47.5,9.8,71.9h11.8c8.6-26.7,11.2-59.5,7.8-89.9
			H1157.3z"/>
		<path fill="#FFCD85" d="M1137.5,59.7c-11,0-19.9,8.9-19.9,19.9v17.6c0,11,8.9,19.9,19.9,19.9s19.9-8.9,19.9-19.9V79.7
			C1157.4,68.7,1148.5,59.7,1137.5,59.7z"/>
		<path fill="none" stroke="#000000" stroke-miterlimit="10" d="M1152.3,83.3"/>
		<polygon fill="#E3A153" points="1141.8,102 1137.5,104.9 1133.2,102 		"/>
		<rect x="1106.6" y="221.3" fill="#383838" width="61.7" height="8.9"/>
		<path fill="#444444" d="M1159.8,86.5l-2.4-1.9v-5c0-11-8.9-19.9-19.9-19.9s-19.9,8.9-19.9,19.9v5l-2.4,1.9v8l2.4,1.9v21.7h19.9
			h19.9V96.4l2.4-1.9V86.5z M1154.2,101.9c0,6.3-5.1,11.4-11.4,11.4l-5.3-2l-5.3,2c-6.3,0-11.4-5.1-11.4-11.4v-4.2l11.6,4.4l5.1-4.4
			l5.1,4.4l11.6-4.4V101.9z"/>
		<polygon fill="#FFFFFF" points="1132.3,91.1 1124.9,89.6 1124.4,86.2 1134.1,88.3 		"/>
		<polygon fill="#FFFFFF" points="1142.7,91.1 1150.1,89.6 1150.7,86.2 1140.9,88.3 		"/>
		<path opacity="0.18" fill="#383838" d="M1187.1,140.4l-1.8-6.8c-2.2-8-10.1-13-18.3-11.5c-15.7,3-43.3,3-59,0
			c-8.1-1.5-16.1,3.5-18.3,11.5l-1.8,6.8c-2.5,9.4,5.9,18.2,15.4,16h0c18.7-4.3,49.7-4.3,68.4,0l0,0
			C1181.2,158.5,1189.6,149.8,1187.1,140.4z"/>
	</g>
	<g>
		<g>
			<ellipse fill="#909396" cx="205.7" cy="603.7" rx="18.1" ry="25.5"/>
			<path fill="#909396" d="M193.4,617.5c0,0-15.3,7.7-19.2,11.7c-1.2,4.5-4.5,10.7-8.2,16.7c-5.9,9.7-12.7,18.8-12.7,18.8l11.8,11.8
				c0,0,8.1-7.7,17.5-14c5.6-3.7,11.7-7,16.8-7.7c3.1-3.1,8.7-12,11.8-17.2c1.4-2.3,2.6-4.8,3.6-7.3l3.2-8.1L193.4,617.5z"/>
			<path fill="#808285" d="M138,676.5l-4.1-2c-5.1-2.5-8.8-7-10.4-12.4l0,0h11.8L138,676.5z"/>
			<polygon fill="#909396" points="165.1,676.5 138,676.5 130,662 133.5,650.5 160,650.5 158.5,662 			"/>
		</g>
		<g>
			<ellipse fill="#909396" cx="319.3" cy="603.7" rx="18.1" ry="25.5"/>
			<path fill="#909396" d="M331.6,617.5c0,0,15.3,7.7,19.2,11.7c1.2,4.5,4.5,10.7,8.2,16.7c5.9,9.7,12.7,18.8,12.7,18.8l-11.8,11.8
				c0,0-8.1-7.7-17.5-14c-5.6-3.7-11.7-7-16.8-7.7c-3.1-3.1-8.7-12-11.8-17.2c-1.4-2.3-2.6-4.8-3.6-7.3l-3.2-8.1L331.6,617.5z"/>
			<path fill="#808285" d="M387,676.5l4.1-2c5.1-2.5,8.8-7,10.4-12.4l0,0h-11.8L387,676.5z"/>
			<polygon fill="#909396" points="359.8,676.5 387,676.5 395,662 391.5,650.5 365,650.5 366.5,662 			"/>
		</g>
		<ellipse fill="#D1D3D4" cx="262.5" cy="936.1" rx="77.3" ry="14.1"/>
		<path fill="#909396" d="M299.7,545h-74.5c-17.2,0-31.1,13.9-31.1,31.1v0c0,12.5,7.3,23.2,17.9,28.2c4.4,13.5,12.6,28.5,23.1,35.7
			c-2.8,8.9-2.7,22.5-0.3,26.6h27.7h27.7c2.4-4,2.5-17.7-0.3-26.6c10.5-7.1,18.7-22.2,23.1-35.7c10.6-5,17.9-15.7,17.9-28.2v0
			C330.8,559,316.9,545,299.7,545z"/>
		<path fill="#808285" d="M308.5,579.3l-1.9-7.2c-2.3-8.4-10.6-13.7-19.2-12c-16.5,3.1-33.4,3.1-49.9,0c-8.6-1.6-16.9,3.6-19.2,12
			l-1.9,7.2c-2.7,9.9,6.2,19.1,16.2,16.8h0c19.7-4.5,40.1-4.5,59.8,0h0C302.4,598.4,311.2,589.2,308.5,579.3z"/>
		<path fill="#909396" d="M291.3,750.9c-4.6,11.4-10.9,21.9-18.7,30.5c-1.5,4.7-2.9,9.5-4.1,14.4c-1.5,5.9-2.8,11.9-3.8,17.9
			c7.2,22.2,6.3,49.6-1.2,73.5l13.2,0.6c11.9-25.6,16.9-57.2,18.2-88.2C295.6,782.4,294.5,765.7,291.3,750.9z"/>
		<path fill="#A0A2A6" d="M262.5,555.4L262.5,555.4c-9.6,0-17.3-7.7-17.3-17.3v-16.8c0-9.6,7.7-17.3,17.3-17.3h0
			c9.6,0,17.3,7.7,17.3,17.3v16.8C279.8,547.7,272,555.4,262.5,555.4z"/>
		<path fill="none" stroke="#000000" stroke-miterlimit="10" d="M276.4,521.1"/>
		<path fill="#909396" d="M243.5,530.7c-2,0-3.7,1.6-3.7,3.7c0,2,1.6,3.7,3.7,3.7h1.7v-7.3H243.5z"/>
		<path fill="#909396" d="M281.5,530.7c2,0,3.7,1.6,3.7,3.7c0,2-1.6,3.7-3.7,3.7h-1.7v-7.3H281.5z"/>
		<polygon fill="#909396" points="266.5,540.1 262.5,543 258.4,540.1 		"/>
		<path fill="#808285" d="M263.5,887.2v11.8c0,8.5,2.5,16.7,6.9,22.8l0.9,1.3l0,0c5.8-7.9,8.2-19.4,6.2-30.3l-0.8-4.9L263.5,887.2z"
			/>
		<path fill="#A0A2A6" d="M295.5,680.5c-1.5-4.8-3.2-9.5-5.3-13.9l0,0h0h-14.3h-13.4h-13.4h-14.3h0l0,0c-2.1,4.4-3.9,9.1-5.3,13.9
			c-3.3,21.5-4,50,4.2,70.4c4.6,11.4,10.9,21.9,18.7,30.5c0.1,0.1,0.2,0.2,0.2,0.3l0,0l0,0c10-20.3,12.2-45.9,7.7-70
			c0-0.1-0.1-0.3-0.1-0.4h2.3h2.3c0,0.1-0.1,0.3-0.1,0.4c-4.5,24.1-2.3,49.6,7.7,70l0,0l0,0c0.1-0.1,0.2-0.2,0.2-0.3
			c7.8-8.6,14.1-19.1,18.7-30.5C299.5,730.5,298.8,702,295.5,680.5z"/>
		<path fill="#909396" d="M233.6,750.9c4.6,11.4,10.9,21.9,18.7,30.5c1.5,4.7,2.9,9.5,4.1,14.4c1.5,5.9,2.8,11.9,3.8,17.9
			c-7.2,22.2-6.3,49.6,1.2,73.5l-13.2,0.6c-11.9-25.6-16.9-57.2-18.2-88.2C229.3,782.4,230.5,765.7,233.6,750.9z"/>
		<path fill="#808285" d="M261.5,887.2v11.8c0,8.5-2.5,16.7-6.9,22.8l-0.9,1.3h0c-5.8-7.9-8.2-19.4-6.2-30.3l0.8-4.9L261.5,887.2z"
			/>
		<circle opacity="0.67" fill="#FFFFFF" cx="254.2" cy="532.6" r="2.9"/>
		<circle opacity="0.67" fill="#FFFFFF" cx="270.8" cy="532.6" r="2.9"/>
		<g>
			<path opacity="0.67" fill="#FFFFFF" d="M249.6,523.6c-1.4,0-2.5-1.1-2.5-2.5c0-4.5,2-8.6,5.5-11.3c1.1-0.8,2.7-0.7,3.5,0.4
				c0.8,1.1,0.7,2.7-0.4,3.5c-2.3,1.8-3.6,4.5-3.6,7.4C252.1,522.5,251,523.6,249.6,523.6z"/>
		</g>
		<g>
			<path opacity="0.67" fill="#FFFFFF" d="M259.5,511.9c-1.2,0-2.3-0.9-2.5-2.1c-0.2-1.4,0.7-2.7,2.1-2.9c0.8-0.1,1.6-0.2,2.4-0.2h1
				c1.4,0,2.5,1.1,2.5,2.5s-1.1,2.5-2.5,2.5h-1c-0.5,0-1,0-1.6,0.1C259.8,511.9,259.6,511.9,259.5,511.9z"/>
		</g>
		<g>
			<path opacity="0.67" fill="#FFFFFF" d="M238.2,552.7h-16.3c-1.4,0-2.5-1.1-2.5-2.5s1.1-2.5,2.5-2.5h16.3c1.4,0,2.5,1.1,2.5,2.5
				S239.5,552.7,238.2,552.7z"/>
		</g>
		<g>
			<path opacity="0.67" fill="#FFFFFF" d="M194.1,616c-1.2,0-2.3-0.9-2.5-2.1c-1.5-9-1.4-14.7,2.7-26.1c0.5-1.3,1.9-2,3.2-1.5
				c1.3,0.5,2,1.9,1.5,3.2c-3.9,10.9-3.8,15.8-2.5,23.6c0.2,1.4-0.7,2.6-2.1,2.9C194.4,616,194.3,616,194.1,616z"/>
		</g>
		<g>
			<path opacity="0.67" fill="#FFFFFF" d="M178.9,633c-0.8,0-1.7-0.4-2.1-1.2c-0.7-1.2-0.3-2.7,0.8-3.4l12-7.2
				c1.2-0.7,2.7-0.3,3.4,0.8s0.3,2.7-0.8,3.4l-12,7.2C179.8,632.9,179.3,633,178.9,633z"/>
		</g>
		<g>
			<path opacity="0.67" fill="#FFFFFF" d="M172.8,644.5c-0.4,0-0.8-0.1-1.1-0.3c-1.2-0.6-1.7-2.1-1.1-3.4l2.5-5
				c0.6-1.2,2.1-1.7,3.4-1.1c1.2,0.6,1.7,2.1,1.1,3.4l-2.5,5C174.6,644,173.7,644.5,172.8,644.5z"/>
		</g>
		<g>
			<path opacity="0.67" fill="#FFFFFF" d="M237.3,748c-0.8,0-1.6-0.4-2.1-1.2c-3.9-6.3-5.1-23.5-5.4-28.7c-0.1-1.7-0.2-3.5-0.2-5.2
				c0-1.4,1.1-2.5,2.4-2.6c1.4-0.1,2.5,1.1,2.6,2.4c0,1.7,0.1,3.4,0.2,5.1c0.6,12.3,2.5,22.9,4.6,26.3c0.7,1.2,0.4,2.7-0.8,3.4
				C238.2,747.9,237.7,748,237.3,748z"/>
		</g>
		<g>
			<path opacity="0.67" fill="#FFFFFF" d="M232.3,702.2c0,0-0.1,0-0.1,0c-1.4-0.1-2.4-1.3-2.4-2.6c0.4-6.8,1.2-12.5,2.4-17
				c0.4-1.3,1.7-2.1,3.1-1.8c1.3,0.4,2.1,1.7,1.8,3.1c-1.1,4-1.9,9.5-2.2,15.9C234.7,701.2,233.6,702.2,232.3,702.2z"/>
		</g>
		<g opacity="0.67">
			<path fill="#FFFFFF" d="M270.3,814.5c-0.2,0-0.4,0-0.6-0.1c-1.3-0.3-2.1-1.7-1.8-3l6.8-26.8c0.3-1.3,1.7-2.1,3-1.8
				c1.3,0.3,2.1,1.7,1.8,3l-6.8,26.8C272.4,813.7,271.4,814.5,270.3,814.5z"/>
		</g>
		<g>
			<path opacity="0.67" fill="#FFFFFF" d="M275.5,773.7c-0.3,0-0.7-0.1-1-0.2c-1.3-0.6-1.8-2-1.3-3.3l2.7-6c0.6-1.3,2-1.8,3.3-1.3
				c1.3,0.6,1.8,2,1.3,3.3l-2.7,6C277.4,773.1,276.5,773.7,275.5,773.7z"/>
		</g>
	</g>
	<g>
		<path fill="#FEC935" d="M725.8,669.5l-3.9-1.9c-4.9-2.4-8.5-6.8-10.1-12l0,0h11.3L725.8,669.5z"/>
		<path fill="#F8B12B" d="M808.5,599.3c0-13.6-7.8-24.6-17.4-24.6s-17.4,11-17.4,24.6c0,5.4,1.2,10.4,3.3,14.4
			c-4.3,2.2-13.4,7.2-16.3,10.2c-1.2,4.4-4.4,10.3-7.9,16.1c-2.2,3.6-4.5,7.1-6.6,10.1l0.7-5.6h-25.5l-3.4,11.1l7.7,13.9H752
			c0,0,7.8-7.5,16.8-13.5c5.4-3.6,11.3-6.7,16.2-7.4c3-3,8.4-11.6,11.4-16.6c1.4-2.3,2.5-4.6,3.5-7l3.1-7.8l0,0
			C806.4,612.7,808.5,606.3,808.5,599.3z"/>
	</g>
	<ellipse fill="#D1D3D4" cx="845.8" cy="936.1" rx="77.3" ry="14.1"/>
	<path fill="#F8B12B" d="M881.7,542.8h-71.8c-16.6,0-30,13.4-30,30v0c0,12,7.1,22.4,17.3,27.2c4.2,13,12.2,27.5,22.3,34.4
		c-2.7,8.5-2.6,21.7-0.3,25.6h26.7h26.7c2.3-3.9,2.4-17.1-0.3-25.6c10.1-6.9,18-21.4,22.3-34.4c10.2-4.8,17.3-15.2,17.3-27.2v0
		C911.7,556.2,898.3,542.8,881.7,542.8z"/>
	<path fill="#F79328" d="M890.2,575.9l-1.9-6.9c-2.2-8.1-10.2-13.2-18.5-11.6c-15.9,3-32.2,3-48.1,0c-8.2-1.6-16.3,3.5-18.5,11.6
		l-1.9,6.9c-2.6,9.5,5.9,18.4,15.6,16.2h0c19-4.3,38.7-4.3,57.6,0h0C884.3,594.2,892.8,585.4,890.2,575.9z"/>
	<path fill="#F8B12B" d="M873.7,741.3c-4.4,11-10.5,21.1-18,29.4c-1.4,4.5-2.8,9.1-3.9,13.8c-1.4,5.7-2.7,11.4-3.7,17.3
		c6.9,21.4,6.1,47.8-1.2,70.8l12.8,0.6c11.5-24.7,16.3-55.1,17.5-85C877.8,771.6,876.7,755.5,873.7,741.3z"/>
	<path fill="#FEC935" d="M845.8,552.8L845.8,552.8c-9.2,0-16.7-7.5-16.7-16.7v-16.2c0-9.2,7.5-16.7,16.7-16.7l0,0
		c9.2,0,16.7,7.5,16.7,16.7v16.2C862.5,545.3,855.1,552.8,845.8,552.8z"/>
	<path fill="none" stroke="#000000" stroke-miterlimit="10" d="M859.3,519.7"/>
	<polygon fill="#F8B12B" points="849.7,538 845.8,540.8 841.9,538 	"/>
	<path fill="#FEC935" d="M846.8,872.6V884c0,8.2,2.4,16.1,6.6,22l0.9,1.2l0,0c5.6-7.6,7.9-18.7,6-29.2l-0.8-4.7L846.8,872.6z"/>
	<path fill="#FEC935" d="M877.7,673.4c-1.4-4.6-3.1-9.1-5.1-13.4l0,0h0h-13.8h-12.9H833h-13.8h0l0,0c-2,4.3-3.7,8.8-5.1,13.4
		c-3.2,20.7-3.8,48.2,4,67.9c4.4,11,10.5,21.1,18,29.4c0.1,0.1,0.2,0.2,0.2,0.3l0,0l0,0c9.6-19.6,11.8-44.2,7.4-67.4
		c0-0.1-0.1-0.2-0.1-0.4h2.2h2.2c0,0.1-0.1,0.2-0.1,0.4c-4.3,23.2-2.2,47.8,7.4,67.4l0,0l0,0c0.1-0.1,0.2-0.2,0.2-0.3
		c7.6-8.3,13.6-18.4,18-29.4C881.5,721.6,880.9,694.1,877.7,673.4z"/>
	<path fill="#F8B12B" d="M818,741.3c4.4,11,10.5,21.1,18,29.4c1.4,4.5,2.8,9.1,3.9,13.8c1.4,5.7,2.7,11.4,3.7,17.3
		c-6.9,21.4-6.1,47.8,1.2,70.8l-12.8,0.6c-11.5-24.7-16.3-55.1-17.5-85C813.9,771.6,815,755.5,818,741.3z"/>
	<path fill="#FEC935" d="M844.9,872.6V884c0,8.2-2.4,16.1-6.6,22l-0.9,1.2l0,0c-5.6-7.6-7.9-18.7-6-29.2l0.8-4.7L844.9,872.6z"/>
	<path fill="#FFFFFF" d="M837.5,532.2c1.5,0.4,3.1-0.5,3.5-2l-5.5-1.5C835.1,530.2,836,531.8,837.5,532.2z"/>
	<path fill="#FFFFFF" d="M854.2,532.2c-1.5,0.4-3.1-0.5-3.5-2l5.5-1.5C856.6,530.2,855.7,531.8,854.2,532.2z"/>
	<g>
		<rect x="485.1" y="588.8" fill="#0A6A5C" width="138.2" height="279.7"/>
		<ellipse fill="#D1D3D4" cx="554.2" cy="936.1" rx="77.3" ry="14.1"/>
		<path fill="#46B6AC" d="M595.4,578.5h-82.5c-17.2,0-31.1,13.9-31.1,31.1v0c0,12.9,7.9,24,19.1,28.7c4.7,13.3,13.3,28,24.2,35
			c-3,8.8-2.9,22.5-0.3,26.5h29.3h29.3c2.6-4,2.6-17.7-0.4-26.5c10.9-7,19.5-21.7,24.2-35c11.2-4.7,19.1-15.8,19.1-28.7v0
			C626.5,592.4,612.6,578.5,595.4,578.5z"/>
		<path fill="#20A399" d="M602.9,612.7l-2-7.2c-2.4-8.4-11.2-13.6-20.3-12c-17.4,3.1-35.3,3.1-52.8,0c-9-1.6-17.9,3.6-20.3,12
			l-2,7.2c-2.8,9.9,6.5,19,17.1,16.8h0c20.8-4.5,42.4-4.5,63.2,0h0C596.4,631.7,605.7,622.6,602.9,612.7z"/>
		<path fill="#BDBDBD" d="M514,917.9c-5.9,4.5-6.7,18.3-6.7,18.3h16.5c4.2-4.6,1.9-18.3,1.9-18.3H514z"/>
		<path fill="#BDBDBD" d="M594.3,917.9c5.9,4.5,6.7,18.3,6.7,18.3h-16.5c-4.2-4.6-1.9-18.3-1.9-18.3H594.3z"/>
		<path fill="#46B6AC" d="M589.1,713.7c-1.4,0.3-2.9,0.7-4.4,1.3C586.2,714.4,587.7,714,589.1,713.7c-1.6-4.8-3.4-9.5-5.6-13.9l0,0
			h0h-15.1h-14.1H540h-15.1h0l0,0c-2.2,4.4-4.1,9.1-5.6,13.9c1.4,0.3,2.9,0.7,4.4,1.3c-1.5-0.6-3-1-4.4-1.3
			c-6.7,20.8-7.4,44.3-1.9,65.6c3.1,12,8,23.2,14.9,32.8c0.1,0.1,0.1,0.2,0.2,0.3l0,0l0,0c13.5-18.7,19.7-43.6,18.7-68h3h3
			c-1.1,24.4,5.1,49.3,18.7,68l0,0l0,0c0.1-0.1,0.1-0.2,0.2-0.3c6.9-9.6,11.9-20.8,14.9-32.8C596.5,758,595.8,734.4,589.1,713.7z"/>
		<g>
			<path fill="#46B6AC" d="M499.2,682.1c0.7-1.7,1.1-3.6,1.1-5.6c0-8.4-6.8-15.2-15.2-15.2c-8.4,0-15.2,6.8-15.2,15.2
				c0,8.4,6.8,15.2,15.2,15.2c1,0,1.9-0.1,2.9-0.3c0.9-1.5,2-3,3.4-4.4C493.7,684.6,496.5,682.9,499.2,682.1z"/>
			<ellipse fill="#46B6AC" cx="489.7" cy="640.1" rx="18.3" ry="34.9"/>
			<polygon fill="#8B5E3C" points="475.8,931.1 469.8,931.1 466.8,559.8 478.8,559.8 			"/>
			<polygon fill="#FFCD85" points="485.1,685.8 461.5,687.6 461.5,657.6 485.1,659.4 			"/>
			<path fill="#F3BA6B" d="M485.1,660.9V675h6.1C491.2,664.8,485.1,660.9,485.1,660.9z"/>
		</g>
		<g>
			<ellipse fill="#46B6AC" cx="618.6" cy="640.1" rx="18.3" ry="34.9"/>
			<path fill="#46B6AC" d="M608.7,689.3c1.1-23,8-40.8,16.3-40.8c9.1,0,16.4,21.2,16.4,47.3c0,17.4-3.3,32.6-8.1,40.8h-16.6
				c0.1-2.1,0.2-4.3,0.2-6.6C616.8,712.7,613.6,697.5,608.7,689.3z"/>
			<path fill="#FFCD85" d="M633.3,736.7l-3.7,27.1h-22.1l2.2-10.7h-7.5c0-11,8.3-16.5,14.5-16.5H633.3z"/>
		</g>
		<path fill="#F0F0F1" d="M514,917.9h11.8c-4.3-24.7-1-51.9,9.8-72.7c-0.2-6.1-0.6-12.2-1.3-18.2h-28.1
			C502.8,857.6,505.4,890.8,514,917.9z"/>
		<path fill="#20A399" d="M517.3,779.3c-5.5,14.1-9.2,30.5-11.1,47.6h28.1c-0.5-5-1.2-9.9-2.1-14.8
			C525.3,802.5,520.4,791.3,517.3,779.3z"/>
		<path fill="#20A399" d="M591,779.3c-3.1,12-8,23.2-14.9,32.8c-0.9,4.8-1.6,9.8-2.1,14.8h28.1C600.3,809.8,596.6,793.4,591,779.3z"
			/>
		<path fill="#F0F0F1" d="M574,826.9c-0.7,6-1.1,12.1-1.3,18.2c10.9,20.9,14.1,48.1,9.8,72.7h11.8c8.6-27,11.2-60.2,7.8-91H574z"/>
		<g>
			<g>
				<path fill="#BDBDBD" d="M554.2,613.4h-22.9c-6.5,0-12.5-3.6-15.5-9.3l0,0c-2.1-4-5.7-7-10-8.4l-20.6-6.8l0,0
					c5-8.7,14.3-14.1,24.4-14.1h44.7L554.2,613.4z"/>
				<circle fill="#E6E7E8" cx="533" cy="599.9" r="10.4"/>
			</g>
			<g>
				<path fill="#BDBDBD" d="M554.2,613.4h22.9c6.5,0,12.5-3.6,15.5-9.3l0,0c2.1-4,5.7-7,10-8.4l20.6-6.8l0,0
					c-5-8.7-14.3-14.1-24.4-14.1h-44.7V613.4z"/>
				<circle fill="#E6E7E8" cx="575.3" cy="599.9" r="10.4"/>
			</g>
		</g>
		<path fill="#939598" d="M535.2,573.5v1.7c0,10.6,8.6,19.1,19.1,19.1h0c10.6,0,19.1-8.6,19.1-19.1v-1.7H535.2z"/>
		<g>
			<path fill="#FFCD85" d="M554.2,588.8L554.2,588.8c-10.1,0-18.3-8.2-18.3-18.3v-14.7c0-10.1,8.2-18.3,18.3-18.3h0
				c10.1,0,18.3,8.2,18.3,18.3v14.7C572.5,580.6,564.3,588.8,554.2,588.8z"/>
			<path fill="none" stroke="#000000" stroke-miterlimit="10" d="M568.9,554.6"/>
			<path fill="#F3BA6B" d="M534.1,564.2c-2.1,0-3.9,1.6-3.9,3.6c0,2,1.7,3.6,3.9,3.6h1.8v-7.3H534.1z"/>
			<path fill="#F3BA6B" d="M574.2,564.2c2.1,0,3.9,1.6,3.9,3.6c0,2-1.7,3.6-3.9,3.6h-1.8v-7.3H574.2z"/>
			<polygon fill="#E3A153" points="558.4,573.5 554.2,576.4 549.9,573.5 			"/>
			<path fill="#8B5E3C" d="M552.7,556.7L552.7,556.7c3.7,0,7.3-1.3,10.2-3.7l3.1-2.6l-2.2,6.3l6-3.2v33.8l3.6,3.6l-4.7,4.7l3.9,3.9
				l-2.9,7.3l8.4-8l-2.8-3.3l5-5.3l-2.2-4v-7.7h4.4v-22.8c0-15.2-12.3-27.5-27.5-27.5h-8.8c-2.6,0-4.7,2.1-4.7,4.7v12.7
				C541.5,551.7,546.5,556.7,552.7,556.7z"/>
			<path fill="#754C29" d="M525.8,561.2v17.3h4.4v7.7l-2.2,4l5,5.3l-2.8,3.3l8.4,8l-2.9-7.3l3.9-3.9l-4.7-4.7l3.6-3.6v-33.8l3-8
				v-12.2l0,0c-9.4,3.4-15.7,12.3-15.7,22.3V561.2z"/>
			<path fill="#22A59A" d="M554.2,560.7L554.2,560.7L554.2,560.7c-2-2-4.6-3.1-7.4-3.1h-8.2v12.2h11.3c0.8,0,1.6-0.3,2.2-0.9l0,0
				c1.2-1.2,3.2-1.2,4.4,0h0c0.6,0.6,1.4,0.9,2.2,0.9h11.3v-12.2h-8.2C558.8,557.6,556.1,558.7,554.2,560.7z"/>
			<g>
				<polygon fill="#FFFFFF" points="548.2,565.5 551.3,562.7 541.5,561.9 				"/>
				<polygon fill="#FFFFFF" points="557,562.7 560.1,565.5 566.8,561.9 				"/>
			</g>
		</g>
		<rect x="522.8" y="694.3" fill="#F0F0F1" width="62.8" height="11.2"/>
	</g>
	<g>
		<ellipse fill="#D1D3D4" cx="1137.5" cy="936.1" rx="77.3" ry="14.1"/>
		<polygon fill="#1B87C8" points="1207.4,568 1137.5,568 1067.6,568 1062,576.9 1062,845.1 1137.5,845.1 1213,845.1 1213,576.9 		
			"/>
		<path fill="#E94D40" d="M1176.9,557h-78.8c-18.2,0-32.9,14.7-32.9,32.9v0c0,13.2,7.7,24.5,18.9,29.8c4.6,14.3,13.3,30.2,24.4,37.7
			c-3,9.4-2.9,23.8-0.3,28.1h29.3h29.3c2.6-4.3,2.6-18.7-0.4-28.1c11.1-7.6,19.8-23.5,24.4-37.7c11.2-5.3,18.9-16.6,18.9-29.8v0
			C1209.8,571.7,1195.1,557,1176.9,557z"/>
		<path fill="#FDD836" d="M1186.2,593.3l-2-7.6c-2.4-8.9-11.2-14.4-20.3-12.7c-17.4,3.3-35.3,3.3-52.8,0c-9-1.7-17.9,3.8-20.3,12.7
			l-2,7.6c-2.8,10.5,6.5,20.2,17.1,17.8l0,0c20.8-4.7,42.4-4.7,63.2,0h0C1179.7,613.4,1189,603.7,1186.2,593.3z"/>
		<path fill="#D33329" d="M1097.4,916.8c-5.9,4.8-6.7,19.4-6.7,19.4h16.5c4.2-4.9,1.9-19.4,1.9-19.4H1097.4z"/>
		<path fill="#E94D40" d="M1102.6,700.3c-6.7,22-7.4,47-1.9,69.6c3.1,12.7,8,24.6,14.9,34.8c0.1,0.1,0.1,0.2,0.2,0.3v0l0,0
			c13.5-19.8,19.7-46.2,18.7-72.1C1130.7,714.8,1113.7,702.8,1102.6,700.3z"/>
		<path fill="#D33329" d="M1177.7,916.8c5.9,4.8,6.7,19.4,6.7,19.4h-16.5c-4.2-4.9-1.9-19.4-1.9-19.4H1177.7z"/>
		<path fill="#E94D40" d="M1172.5,700.3c6.7,22,7.4,47,1.9,69.6c-3.1,12.7-8,24.6-14.9,34.8c-0.1,0.1-0.1,0.2-0.2,0.3v0l0,0
			c-13.5-19.8-19.7-46.2-18.7-72.1C1144.3,714.8,1161.4,702.8,1172.5,700.3z"/>
		<g>
			<ellipse fill="#E94D40" cx="1073" cy="622.3" rx="18.3" ry="37"/>
			<path fill="#E94D40" d="M1058.4,724.7l3.7,28.8h22.1l-2.2-11.3h7.5c0-11.6-8.3-17.5-14.5-17.5H1058.4z"/>
			<g>
				<path fill="#E94D40" d="M1081,678.6c0.6-1.5,1.3-2.9,2-4.1c-1.1-24.4-8-43.2-16.3-43.2c-7,0-13,13.5-15.4,32.5
					C1063.6,663.6,1074.5,668.6,1081,678.6z"/>
				<path fill="#FDD836" d="M1051.3,663.7c-0.7,5.5-1,11.4-1,17.7c0,18.5,3.3,34.6,8.1,43.3h16.6c-0.1-2.3-0.2-4.6-0.2-7
					c0-15.8,2.4-30,6.2-39.2C1074.5,668.6,1063.6,663.6,1051.3,663.7z"/>
			</g>
		</g>
		<g>
			<ellipse fill="#E94D40" cx="1202" cy="622.3" rx="18.3" ry="37"/>
			<path fill="#E94D40" d="M1216.7,724.7l-3.7,28.8h-22.1l2.2-11.3h-7.5c0-11.6,8.3-17.5,14.5-17.5H1216.7z"/>
			<g>
				<path fill="#E94D40" d="M1194,678.6c-0.6-1.5-1.3-2.9-2-4.1c1.1-24.4,8-43.2,16.3-43.2c7,0,13,13.5,15.4,32.5
					C1211.5,663.6,1200.5,668.6,1194,678.6z"/>
				<path fill="#FDD836" d="M1223.7,663.7c0.7,5.5,1,11.4,1,17.7c0,18.5-3.3,34.6-8.1,43.3H1200c0.1-2.3,0.2-4.6,0.2-7
					c0-15.8-2.4-30-6.2-39.2C1200.5,668.6,1211.5,663.6,1223.7,663.7z"/>
			</g>
		</g>
		<path fill="#FDD836" d="M1097.4,916.8h11.8c-4.3-26.2-1-55,9.8-77.1c-0.2-6.5-0.6-13-1.3-19.3h-28.1
			C1086.2,852.9,1088.8,888.1,1097.4,916.8z"/>
		<path fill="#D33329" d="M1100.7,769.9c-5.5,15-9.2,32.3-11.1,50.4h28.1c-0.5-5.3-1.2-10.5-2.1-15.6
			C1108.7,794.5,1103.7,782.6,1100.7,769.9z"/>
		<path fill="#D33329" d="M1174.4,769.9c-3.1,12.7-8,24.6-14.9,34.8c-0.9,5.1-1.6,10.4-2.1,15.6h28.1
			C1183.6,802.2,1179.9,784.9,1174.4,769.9z"/>
		<path fill="#FDD836" d="M1157.3,820.3c-0.7,6.4-1.1,12.8-1.3,19.3c10.9,22.1,14.1,50.9,9.8,77.1h11.8c8.6-28.6,11.2-63.8,7.8-96.4
			H1157.3z"/>
		<g>
			<path fill="#5AC2EF" d="M1084.2,554.8c-12.2,0-22.1,9.9-22.1,22.1v0c17.3-18.3,52.3,7.1,75.5,7.1l0-29.3H1084.2z"/>
			<path fill="#5AC2EF" d="M1190.9,554.8h-53.3l0,29.3c23.2,0,58.2-25.4,75.5-7.1v0C1213,564.7,1203.1,554.8,1190.9,554.8z"/>
		</g>
		<g>
			<g>
				<path fill="#E94D40" d="M1155.3,527.5c-2-8-9.2-13.9-17.8-13.9h0c-8.3,0-15.4,5.6-17.6,13.2l17.6,11L1155.3,527.5z"/>
				<path fill="#FFCD85" d="M1137.5,537.8l-17.6-11c-0.5,1.6-0.7,3.3-0.7,5.1v17.8c0,10.1,8.2,18.3,18.3,18.3h0
					c10.1,0,18.3-8.2,18.3-18.3v-17.8c0-1.5-0.2-3-0.5-4.4L1137.5,537.8z M1137.5,554.8l-4.3-3.1h8.5L1137.5,554.8z"/>
				<polygon fill="#E3A153" points="1137.5,554.8 1141.8,551.7 1133.2,551.7 				"/>
			</g>
			<path fill="#FDD836" d="M1137.5,535.3l-1.2-2.3c-2.6-5-6.6-9.1-11.6-11.9l0,0c-4.7-2.6-7.6-7.5-7.6-12.8V506l-0.8,1.9
				c-3.5,8.5-5.2,17.5-5.2,26.6l0,0c0,6,3,11.7,8,15l0,0v0.1c0,10.1,8.2,18.3,18.3,18.3l0,0v-5.2c-4.3,0-6.8,2.5-6.8,2.5l0,0
				c-4.1-3.6-6.9-8.6-7.8-14l-0.3-1.7l14.9,3.7L1137.5,535.3z"/>
			<path fill="#FFFFFF" d="M1125.8,540c0.9,3.5,4.4,5.6,7.9,4.7C1132.8,541.2,1129.3,539.1,1125.8,540z"/>
			<path fill="#FDD836" d="M1137.5,535.3l1.2-2.3c2.6-5,6.6-9.1,11.6-11.9l0,0c4.7-2.6,7.6-7.5,7.6-12.8V506l0.8,1.9
				c3.5,8.5,5.2,17.5,5.2,26.6l0,0c0,6-3,11.7-8,15l0,0v0.1c0,10.1-8.2,18.3-18.3,18.3l0,0v-5.2c4.3,0,6.8,2.5,6.8,2.5l0,0
				c4.1-3.6,6.9-8.6,7.8-14l0.3-1.7l-14.9,3.7L1137.5,535.3z"/>
			<path fill="#FFFFFF" d="M1149.2,540c-0.9,3.5-4.4,5.6-7.9,4.7C1142.2,541.2,1145.7,539.1,1149.2,540z"/>
		</g>
		<g>
			<path fill="#FDD836" d="M1136,632.9v-18.7c0-1.6-1.3-2.8-2.8-2.8c-7.8,0-29,0.5-29,5.7c0,18,12.8,18.6,29,18.7
				C1134.7,635.8,1136,634.5,1136,632.9z"/>
			<path fill="#FDD836" d="M1136,652.5v-10.6c0-1.6-1.3-2.8-2.8-2.8c-7.3,0-11.9-0.5-14.7-1c-1.8-0.3-3.5,1.2-3.3,3.1
				c0.7,7.8,4,13.5,17.9,14.2C1134.6,655.4,1136,654.1,1136,652.5z"/>
			<path fill="#FDD836" d="M1133.2,658.2c-1.7-0.1-4-0.2-5.8-0.6c-1.3-0.3-2.6,0.3-3.2,1.5c-2.5,5.4-4,14.5-4.2,25
				c0,1.6,1.2,2.9,2.8,2.9h10.3c1.6,0,2.8-1.3,2.8-2.8V661C1136,659.5,1134.8,658.3,1133.2,658.2z"/>
			<path fill="#FDD836" d="M1141.9,611.4c-1.6,0-2.8,1.3-2.8,2.8v18.7c0,1.6,1.3,2.8,2.8,2.8c16.2,0,29-0.7,29-18.7
				C1170.9,611.9,1149.7,611.4,1141.9,611.4z"/>
			<path fill="#FDD836" d="M1156.6,638c-2.8,0.5-7.5,1-14.7,1c-1.6,0-2.8,1.3-2.8,2.8v10.6c0,1.6,1.4,2.9,3,2.8
				c13.9-0.7,17.2-6.4,17.9-14.2C1160.1,639.2,1158.5,637.6,1156.6,638z"/>
			<path fill="#FDD836" d="M1147.6,657.6c-1.8,0.4-4.1,0.6-5.8,0.6c-1.5,0.1-2.7,1.3-2.7,2.8v23.1c0,1.6,1.3,2.8,2.8,2.8h10.2
				c1.6,0,2.9-1.3,2.8-2.9c-0.2-10.5-1.7-19.6-4.2-25C1150.2,657.9,1148.9,657.3,1147.6,657.6z"/>
		</g>
		<path fill="#F9C12E" d="M1166.8,685.6L1166.8,685.6L1166.8,685.6l-15.2,0h-14.1h-14.1h-15.1h0l0,0c-2.2,4.7-4.1,9.6-5.6,14.7
			c11.1,2.5,28.1,14.5,31.9,32.6h3h3c3.8-18.1,20.8-30.1,31.9-32.6C1170.9,695.2,1169,690.3,1166.8,685.6z"/>
	</g>
</g>
</svg>
